# xmcd CD database file
#
# Track frame offsets:
#	150
#	13960
#	34443
#	51406
#	83402
#	95519
#	113339
#	134128
#	155194
#	169417
#	180596
#	201415
#	220028
#	240588
#
# Disc length: 3420 seconds
#
# Revision: 6
# Processed by: cddbd v1.5.1PL0 Copyright (c) Steve Scherf et al.
# Submitted via: CDex 1.51
#
DISCID=c90d5a0e
DTITLE=Treves Blues Band - Jeepster
DYEAR=1999
DGENRE=Blues
TTITLE0=Long Grey Mare
TTITLE1=Get Out of My Life, Woman
TTITLE2=Flip, Flop and Fly
TTITLE3=Sky is Cryin'
TTITLE4=Jeepster
TTITLE5=Downtown Shuffle
TTITLE6=Confusion
TTITLE7=I Don't Want You to Be My Girl
TTITLE8=Summertime Blues
TTITLE9=I Want to Be Loved
TTITLE10=Suzzeing
TTITLE11=Big Boss Man
TTITLE12=Crossroads
TTITLE13=Tryin' to Be Nice
EXTD=YEAR: 1999
EXTT0=
EXTT1=
EXTT2=
EXTT3=
EXTT4=
EXTT5=
EXTT6=
EXTT7=
EXTT8=
EXTT9=
EXTT10=
EXTT11=
EXTT12=
EXTT13=
PLAYORDER=
